<?xml version="1.0" standalone="no"?>
<!DOCTYPE svg PUBLIC "-//W3C//DTD SVG 20010904//EN"
 "http://www.w3.org/TR/2001/REC-SVG-20010904/DTD/svg10.dtd">
<svg version="1.0" xmlns="http://www.w3.org/2000/svg"
 width="450.000000pt" height="450.000000pt" viewBox="0 0 450.000000 450.000000"
 preserveAspectRatio="xMidYMid meet">
<metadata>
Created by potrace 1.14, written by Peter Selinger 2001-2017
</metadata>
<g transform="translate(0.000000,450.000000) scale(0.100000,-0.100000)"
fill="#000000" stroke="none">
<path d="M2165 4181 c-179 -83 -135 -343 60 -359 137 -11 239 120 195 252 -33
101 -156 153 -255 107z m104 -92 c63 -22 77 -104 24 -146 -33 -27 -53 -28 -93
-8 -26 13 -39 35 -46 74 -4 24 28 70 56 80 14 5 25 10 26 10 1 1 15 -4 33 -10z"/>
<path d="M1145 3842 c-143 -67 -153 -253 -18 -338 l42 -26 -3 -147 -2 -146
-182 -295 c-160 -259 -185 -296 -210 -300 l-29 -5 24 -77 c43 -141 163 -262
302 -305 66 -20 198 -26 261 -12 111 25 227 102 290 194 26 38 60 120 74 178
6 24 4 27 -21 27 -25 0 -36 14 -103 122 -41 67 -77 127 -79 132 -2 5 -35 59
-72 118 -38 60 -69 111 -69 114 0 2 -17 29 -37 60 l-37 55 0 147 c0 100 4 147
12 150 32 10 79 52 99 87 l22 40 283 1 283 0 30 -31 c42 -43 148 -158 162
-176 10 -13 2 -27 -52 -85 l-65 -69 0 -375 0 -376 50 -49 50 -49 36 35 36 36
-34 36 -35 35 1 329 c1 275 3 331 16 349 15 20 119 138 191 215 20 21 63 69
97 107 l61 68 287 -1 c181 0 289 -4 291 -10 15 -46 72 -103 117 -118 5 -2 9
-68 9 -148 l-1 -146 -183 -301 c-169 -277 -186 -302 -211 -302 -16 0 -28 -2
-28 -4 0 -25 49 -152 74 -191 162 -250 531 -288 745 -76 61 60 92 114 121 211
l18 60 -28 0 c-25 0 -35 11 -82 88 -29 48 -57 95 -63 104 -5 10 -65 107 -132
217 l-123 199 1 141 0 141 27 14 c150 78 145 286 -8 350 -43 18 -113 14 -160
-9 -34 -16 -90 -81 -90 -104 0 -8 -94 -11 -313 -11 l-314 0 -60 -68 c-34 -37
-84 -92 -112 -122 l-51 -55 -43 46 c-23 25 -73 80 -111 122 l-70 77 -313 0
c-264 0 -313 2 -313 14 0 18 -43 70 -80 96 -42 30 -125 35 -175 12z m151 -133
c19 -38 18 -62 -6 -92 -40 -50 -116 -43 -145 12 -26 52 1 108 57 120 42 9 76
-5 94 -40z m2042 17 c55 -61 15 -146 -69 -146 -11 0 -34 14 -51 30 -26 26 -30
36 -25 66 12 75 96 104 145 50z m-1989 -899 c66 -109 125 -207 131 -217 11
-20 6 -20 -259 -20 l-270 0 71 118 c66 108 149 244 185 300 8 13 16 22 18 20
2 -1 57 -92 124 -201z m2070 -22 l129 -210 -266 -3 c-146 -1 -267 -1 -269 1
-2 2 56 101 129 220 73 119 136 213 140 209 4 -4 66 -102 137 -217z m-1918
-363 c-16 -29 -72 -73 -130 -100 -74 -34 -178 -41 -256 -16 -59 18 -145 75
-171 113 l-15 21 291 0 c276 0 290 -1 281 -18z m2052 -5 c-28 -38 -98 -87
-153 -107 -72 -26 -197 -23 -263 8 -56 25 -123 75 -138 103 -9 18 -2 19 281
19 l291 0 -18 -23z"/>
<path d="M2314 3333 c-16 -20 -30 -39 -31 -42 -2 -3 12 -23 30 -43 l33 -38 -1
-332 0 -333 -163 -164 c-147 -150 -162 -168 -162 -200 -1 -20 -2 -155 -3 -300
l-2 -264 -97 -2 c-99 -1 -114 -5 -106 -27 4 -10 91 -13 429 -12 233 1 430 2
437 3 6 1 12 9 12 19 0 17 -10 19 -92 19 -51 1 -98 1 -105 2 -8 1 -11 75 -11
279 -1 152 -1 286 -1 297 -1 12 -34 55 -76 97 -41 42 -75 80 -75 85 0 4 27 35
60 68 l60 60 0 375 0 375 -54 57 -53 57 -29 -36z m63 -1437 c0 -189 -4 -276
-11 -278 -6 -2 -63 -3 -126 -3 l-115 0 -1 280 -1 280 65 64 65 64 62 -66 62
-67 0 -274z"/>
<path d="M1494 1441 c-2 -2 -4 -12 -4 -20 0 -15 67 -16 748 -15 411 1 753 2
760 3 8 0 12 9 10 18 -3 17 -47 18 -756 18 -415 0 -756 -2 -758 -4z"/>
<path d="M3540 1162 c-31 -5 -39 -18 -33 -51 5 -32 16 -39 52 -33 29 4 41 27
33 64 -4 20 -18 25 -52 20z"/>
<path d="M1349 1158 c-1 -2 -2 -94 -3 -205 l-1 -203 42 0 43 0 0 205 0 205
-40 0 c-22 0 -41 -1 -41 -2z"/>
<path d="M3279 1128 c-3 -62 -3 -63 -39 -68 -31 -5 -34 -8 -35 -37 -1 -31 1
-33 36 -33 l38 0 -1 -115 c-1 -63 0 -117 3 -119 5 -5 46 -9 70 -7 14 1 16 17
15 112 -1 61 1 115 4 119 3 5 26 10 50 12 43 3 45 5 45 33 0 29 -2 30 -47 33
-28 2 -48 8 -49 15 -1 7 -2 25 -3 42 -1 28 -4 30 -43 33 -39 2 -43 0 -44 -20z"/>
<path d="M0 1102 l0 -37 73 0 c39 1 77 -1 82 -2 6 -2 10 -62 10 -158 l0 -155
41 0 c25 0 44 5 46 13 2 6 3 76 2 155 -1 78 3 143 7 143 5 1 42 2 82 3 l72 1
3 38 3 37 -210 0 -211 0 0 -38z"/>
<path d="M2220 997 c0 -179 3 -175 -129 -174 -98 0 -113 -7 -105 -46 2 -11 6
-22 9 -25 8 -9 224 -2 248 7 12 5 31 19 42 31 18 20 20 39 23 186 l4 164 -46
0 -46 0 0 -143z"/>
<path d="M495 1046 c-42 -18 -56 -56 -54 -145 3 -136 33 -158 202 -152 34 1
37 3 37 31 l0 30 -62 0 c-35 0 -69 4 -76 9 -14 9 -21 139 -8 160 5 7 46 11
117 11 l110 0 -3 -32 -3 -32 -97 1 -98 0 0 -28 0 -29 145 0 145 0 0 58 c0 80
-7 98 -45 116 -43 21 -265 22 -310 2z"/>
<path d="M975 1049 c-47 -13 -66 -56 -68 -149 -1 -88 15 -123 61 -141 27 -11
299 -15 309 -6 3 3 6 19 7 36 l2 31 -131 0 c-153 0 -165 6 -165 81 0 78 9 82
154 84 69 1 129 4 132 8 3 3 7 19 8 36 l2 31 -140 -1 c-78 0 -155 -5 -171 -10z"/>
<path d="M1462 1023 l3 -36 89 -2 c109 -2 114 -8 115 -108 0 -134 -3 -124 36
-129 20 -2 39 1 44 6 4 6 6 59 5 117 -3 171 -22 189 -202 189 l-93 0 3 -37z"/>
<path d="M2371 935 c4 -118 5 -126 29 -150 33 -32 52 -36 182 -36 114 -1 157
12 179 53 7 12 12 71 13 137 l1 116 -42 3 c-39 3 -43 1 -43 -20 -2 -162 -6
-199 -20 -208 -8 -5 -52 -10 -97 -10 -111 0 -113 3 -113 136 l0 104 -46 0 -46
0 3 -125z"/>
<path d="M2869 1053 c-24 -6 -37 -43 -34 -97 3 -58 20 -76 79 -77 23 -1 77 -2
121 -3 79 -1 80 -1 83 -28 4 -34 -5 -36 -153 -34 -71 1 -123 -3 -127 -9 -12
-16 -9 -55 5 -56 62 -3 311 1 325 6 26 8 39 42 37 99 0 35 -6 52 -20 62 -21
16 -25 16 -150 19 -49 2 -96 3 -102 4 -7 0 -13 12 -13 26 0 26 3 27 93 28 35
0 37 1 37 33 l0 34 -82 -1 c-46 -1 -90 -3 -99 -6z"/>
<path d="M3740 1053 c-65 -21 -81 -50 -82 -147 -1 -139 25 -157 222 -158 76 0
142 2 147 5 5 3 8 18 8 34 l-2 28 -130 3 c-150 3 -155 5 -158 82 -4 82 2 85
154 85 72 0 131 3 132 8 2 9 2 44 0 57 -1 10 -261 13 -291 3z"/>
<path d="M4144 1045 c-39 -16 -51 -48 -52 -140 -1 -79 17 -127 52 -143 13 -6
52 -11 87 -12 104 -3 101 -4 97 31 l-3 32 -62 -1 c-39 0 -66 5 -73 13 -6 8
-10 44 -8 87 l3 73 111 3 112 3 5 -28 c3 -15 2 -30 -3 -33 -4 -3 -51 -4 -104
-4 l-96 1 0 -28 0 -29 145 0 145 0 0 58 c0 122 -14 131 -196 131 -85 0 -140
-5 -160 -14z"/>
<path d="M3508 1038 c-4 -11 -3 -232 1 -280 0 -10 8 -15 19 -13 9 2 28 4 42 4
l25 1 -2 142 c-1 79 -2 146 -2 151 -2 12 -79 8 -83 -5z"/>
<path d="M996 542 c-2 -4 -3 -59 -2 -122 l1 -115 80 0 c80 0 98 6 88 32 -3 9
-24 13 -63 13 l-58 0 -1 63 c0 123 0 124 -21 130 -11 3 -22 2 -24 -1z"/>
<path d="M1243 471 c-49 -106 -73 -161 -70 -162 23 -8 41 -3 56 17 16 20 28
24 75 24 44 0 57 -4 65 -19 13 -23 34 -32 51 -21 10 6 11 13 4 22 -6 7 -30 56
-53 110 -35 79 -48 97 -68 101 -22 4 -28 -3 -60 -72z m91 -59 c7 -20 4 -22
-33 -22 -23 0 -41 2 -41 4 0 2 10 25 21 51 l21 48 13 -29 c7 -17 16 -40 19
-52z"/>
<path d="M1879 543 c-1 -4 -1 -163 0 -207 1 -27 5 -34 19 -31 9 2 20 4 24 4 4
1 7 11 6 24 -2 40 2 44 30 41 76 -9 128 36 117 100 -10 51 -38 67 -124 69 -39
1 -71 1 -72 0z m141 -58 c20 -24 4 -65 -25 -66 -14 -1 -35 -2 -47 -2 -20 -1
-23 4 -24 33 0 19 1 38 3 43 7 13 80 7 93 -8z"/>
<path d="M2119 545 c-1 0 -3 -53 -5 -117 -2 -97 0 -118 12 -118 8 0 17 0 22 0
4 -1 9 16 12 37 4 31 9 37 25 35 11 -2 34 -19 50 -38 30 -34 75 -53 75 -31 0
6 -12 23 -27 39 l-26 27 26 27 c35 34 35 77 2 109 -13 14 -34 25 -47 26 -44 1
-118 4 -119 4z m139 -78 c4 -29 -21 -46 -62 -41 -11 1 -24 3 -28 3 -5 1 -8 17
-8 37 l0 35 48 -3 c43 -3 47 -5 50 -31z"/>
<path d="M2410 533 c-87 -45 -90 -177 -4 -218 62 -29 134 -12 168 39 18 29 21
94 5 128 -26 58 -108 82 -169 51z m117 -60 c38 -58 4 -127 -63 -127 -86 0
-103 131 -20 152 41 11 64 4 83 -25z"/>
<path d="M2710 542 c-6 -2 -10 -12 -10 -23 0 -15 7 -19 35 -19 l35 0 0 -64 c0
-66 -9 -83 -48 -91 -26 -5 -62 21 -62 45 0 14 -6 18 -21 15 -31 -6 -32 -9 -16
-47 33 -78 156 -74 187 6 11 31 14 176 3 177 -35 3 -95 3 -103 1z"/>
<path d="M2874 541 c-7 -8 -4 -231 4 -232 4 -1 44 -2 90 -3 77 -1 82 0 82 20
0 19 -5 21 -52 19 -68 -2 -87 7 -81 38 4 22 9 24 61 23 51 -1 57 1 57 19 0 18
-7 20 -57 20 -54 -1 -57 0 -60 27 -5 28 -4 28 56 29 34 1 64 1 69 0 4 0 7 8 7
19 0 14 -7 20 -22 21 -86 3 -150 3 -154 0z"/>
<path d="M3136 526 c-81 -46 -75 -171 10 -211 42 -20 108 -16 132 8 19 20 6
41 -22 32 -50 -15 -78 -12 -103 9 -28 24 -34 68 -13 105 14 28 68 42 100 26
20 -10 27 -10 38 1 18 19 16 24 -23 39 -43 18 -76 16 -119 -9z"/>
<path d="M3314 541 c-2 -2 -4 -12 -4 -22 0 -13 9 -19 37 -21 l38 -3 0 -95 c0
-88 1 -95 20 -95 18 0 20 8 23 98 l3 97 34 0 c37 0 54 15 36 33 -10 10 -178
17 -187 8z"/>
<path d="M1410 536 c0 -4 4 -14 10 -24 5 -9 21 -53 36 -97 34 -102 40 -114 59
-111 23 3 31 16 50 76 10 30 21 59 25 63 4 5 18 -22 30 -60 13 -37 27 -71 33
-74 28 -19 43 2 79 102 44 125 44 129 15 129 -21 0 -26 -9 -42 -62 -33 -112
-35 -113 -65 -23 -20 61 -31 81 -46 83 -17 2 -24 -9 -44 -70 -12 -40 -25 -77
-28 -83 -3 -5 -17 26 -31 70 -24 72 -29 80 -53 83 -16 2 -28 1 -28 -2z"/>
<path d="M0 423 l0 -23 434 0 c377 0 434 2 432 15 -1 8 -6 18 -10 22 -4 4
-199 8 -432 8 l-424 0 0 -22z"/>
<path d="M3637 423 l-4 -23 434 0 434 0 -3 23 -3 22 -427 0 -427 0 -4 -22z"/>
</g>
</svg>
